<?xml version="1.0" standalone="no"?>
<!DOCTYPE svg PUBLIC "-//W3C//DTD SVG 20010904//EN"
 "http://www.w3.org/TR/2001/REC-SVG-20010904/DTD/svg10.dtd">
<svg version="1.0" xmlns="http://www.w3.org/2000/svg"
 width="180.000000pt" height="180.000000pt" viewBox="0 0 180.000000 180.000000"
 preserveAspectRatio="xMidYMid meet">
<metadata>
Created by potrace 1.14, written by Peter Selinger 2001-2017
</metadata>
<g transform="translate(0.000000,180.000000) scale(0.100000,-0.100000)"
fill="#000000" stroke="none">
<path d="M1340 1740 c-19 -6 -59 -15 -87 -20 -29 -6 -73 -20 -99 -31 -40 -18
-50 -28 -74 -83 -41 -90 -98 -184 -118 -194 -9 -5 -36 -12 -58 -16 -41 -6 -44
-4 -130 70 -49 42 -104 83 -123 91 -50 21 -349 26 -416 6 -86 -26 -179 -90
-147 -101 8 -2 -4 -12 -26 -22 -35 -16 -41 -23 -39 -46 3 -35 30 -43 112 -31
33 4 72 10 88 12 15 2 27 1 27 -2 0 -3 -27 -32 -60 -63 -33 -31 -60 -62 -60
-69 0 -14 56 -6 109 15 l33 14 -17 -26 c-24 -37 -13 -54 34 -54 22 0 43 -4 46
-10 3 -5 14 -10 24 -10 10 0 24 -7 31 -15 7 -8 20 -15 30 -15 10 0 23 -7 30
-15 16 -19 44 -19 60 0 13 16 34 10 24 -7 -6 -9 12 -27 28 -28 4 0 14 8 24 17
13 13 19 14 22 5 2 -6 9 -12 16 -12 6 0 19 -12 28 -27 l17 -28 10 28 c6 16 11
40 12 55 l1 27 7 -25 c4 -14 16 -27 26 -29 23 -4 51 -31 83 -80 21 -32 23 -33
18 -10 -9 43 -19 169 -14 169 3 0 20 -36 38 -79 17 -44 40 -87 51 -97 19 -17
19 -16 16 24 -4 47 3 46 31 -2 20 -33 20 -34 0 -77 -22 -49 -98 -266 -98 -280
0 -25 29 -3 58 44 l33 52 -7 -60 c-3 -33 -8 -67 -9 -75 -2 -8 -6 -51 -9 -95
-4 -44 -9 -100 -11 -125 -6 -60 9 -84 23 -39 20 64 62 240 62 261 0 45 12 7
15 -49 2 -32 7 -89 10 -128 7 -89 24 -317 25 -329 0 -6 3 -6 9 0 9 8 24 247
25 406 1 36 4 64 9 61 4 -2 7 -11 7 -19 0 -18 82 -321 116 -428 23 -71 52
-131 60 -123 2 1 -7 50 -20 107 -13 58 -26 125 -29 150 l-6 45 18 -56 c24 -76
82 -199 93 -199 14 0 0 78 -47 262 -24 93 -40 168 -36 168 3 0 25 -40 48 -88
40 -83 190 -308 200 -299 2 3 -23 58 -56 123 -91 182 -195 427 -189 445 2 4
22 -20 44 -54 60 -89 130 -178 136 -171 3 2 29 -25 58 -61 28 -37 54 -64 57
-61 3 3 -27 56 -67 118 -106 164 -200 319 -200 331 0 5 9 2 19 -7 22 -20 66
-46 131 -76 25 -12 58 -28 73 -37 28 -15 29 -15 18 5 -6 11 -15 22 -20 24 -32
12 -247 211 -233 216 6 2 26 -4 46 -12 46 -19 155 -33 141 -17 -6 5 -71 41
-145 79 -117 59 -135 72 -138 94 -3 22 0 26 17 21 23 -6 42 23 43 68 1 16 8
33 16 38 9 5 13 17 10 29 -4 12 0 23 7 26 7 2 16 17 20 33 3 15 16 45 29 66
l24 39 27 -51 c32 -59 50 -66 88 -34 16 13 35 23 43 23 8 0 14 7 14 15 0 8 0
18 1 23 1 11 70 42 93 42 31 0 50 16 43 34 -4 9 -1 16 6 17 33 2 57 6 61 10 6
6 -14 30 -58 67 l-39 34 49 -8 c51 -8 103 -8 112 0 2 3 1 13 -3 23 -5 10 -7
23 -6 30 1 7 -16 22 -39 35 -42 24 -51 38 -24 38 35 0 4 26 -57 48 -72 27
-238 38 -299 22z"/>
</g>
</svg>
